<?xml version="1.0" encoding="UTF-8"?>
<svg xmlns="http://www.w3.org/2000/svg" xmlns:xlink="http://www.w3.org/1999/xlink" width="2000px" height="1132px" viewBox="0 0 2000 1132" version="1.1">
<g id="surface1">
<path style=" stroke:none;fill-rule:nonzero;fill:rgb(0%,0%,0%);fill-opacity:1;" d="M 333.554688 155.832031 C 293.734375 191.101562 248.691406 253.148438 223.890625 306.707031 C 193.863281 372.019531 184.726562 434.722656 194.519531 516.359375 C 203 586.242188 250.652344 789.367188 261.746094 802.429688 C 265.664062 807.65625 286.554688 811.574219 312.007812 812.882812 L 355.089844 814.847656 L 369.453125 873.625 L 410.574219 875.585938 C 457.574219 877.542969 466.710938 872.324219 472.582031 840.972656 C 477.15625 818.109375 477.15625 818.109375 511.746094 818.109375 L 545.691406 818.109375 L 555.480469 848.808594 L 564.617188 880.160156 L 602.480469 882.113281 C 646.863281 884.730469 657.308594 878.195312 663.183594 846.84375 C 667.101562 823.984375 667.101562 823.984375 700.390625 825.945312 C 732.375 827.910156 733.027344 828.554688 740.210938 854.035156 L 748.046875 880.160156 L 838.773438 880.160156 L 844.644531 855.335938 L 851.171875 830.519531 L 1004.570312 834.4375 C 1089.425781 836.398438 1165.144531 839.664062 1172.972656 841.617188 C 1182.765625 843.582031 1189.292969 852.726562 1195.820312 871.667969 L 1204.308594 899.75 L 1295.691406 899.75 L 1301.5625 871.667969 C 1308.089844 842.273438 1304.179688 844.234375 1362.273438 841.617188 C 1370.101562 840.972656 1376.636719 850.117188 1383.808594 870.359375 L 1394.253906 899.75 L 1432.117188 901.710938 C 1475.199219 903.667969 1485.636719 897.792969 1492.164062 868.398438 C 1498.046875 838.355469 1506.527344 831.171875 1533.945312 831.171875 C 1558.089844 831.171875 1558.746094 831.828125 1566.582031 863.824219 C 1575.71875 901.058594 1582.898438 904.976562 1635.773438 901.710938 C 1667.101562 899.75 1667.753906 899.09375 1675.589844 873.625 C 1679.5 859.253906 1684.726562 839.664062 1686.683594 829.863281 C 1689.945312 816.800781 1695.820312 811.574219 1711.492188 808.3125 C 1768.925781 796.558594 1844.644531 776.304688 1852.480469 770.433594 C 1859.007812 765.207031 1860.964844 747.574219 1859.007812 703.160156 C 1856.398438 630.65625 1847.253906 614.984375 1794.390625 588.207031 C 1774.800781 578.40625 1697.78125 554.246094 1622.0625 534.648438 C 1484.992188 498.726562 1315.273438 445.167969 1318.535156 439.292969 C 1319.84375 437.332031 1317.234375 429.496094 1312.664062 421.003906 C 1304.179688 404.679688 1291.773438 402.714844 1272.84375 414.46875 C 1255.871094 425.578125 1216.054688 406.632812 1212.792969 386.390625 C 1209.527344 365.484375 1192.554688 356.347656 1172.972656 366.792969 C 1159.917969 373.980469 1154.699219 372.671875 1133.808594 360.921875 C 1117.492188 351.121094 1109.664062 341.976562 1109.664062 331.523438 C 1109.664062 308.664062 1093.34375 298.21875 1072.453125 308.015625 C 1057.445312 315.199219 1052.871094 313.890625 1031.980469 295.601562 C 957.574219 232.25 928.855469 227.023438 852.480469 262.292969 C 736.292969 315.199219 628.589844 319.769531 537.855469 276.011719 C 498.046875 256.414062 464.101562 224.40625 421.671875 164.976562 C 392.953125 124.480469 370.101562 122.527344 333.554688 155.832031 Z M 308.746094 345.894531 C 410.574219 410.550781 598.5625 473.253906 840.082031 524.195312 C 1030.027344 564.039062 1118.144531 596.042969 1206.265625 656.136719 C 1240.210938 678.988281 1331.589844 764.554688 1331.589844 773.695312 C 1331.589844 778.921875 1305.480469 778.269531 1034.589844 761.945312 C 806.789062 748.882812 823.761719 752.144531 796.34375 709.039062 C 753.261719 640.457031 682.117188 591.46875 525.453125 524.195312 C 412.535156 475.863281 372.0625 451.703125 330.289062 405.980469 C 298.953125 371.363281 268.925781 328.261719 277.417969 328.261719 C 279.371094 328.261719 293.082031 336.097656 308.746094 345.894531 Z M 308.746094 345.894531 "/>
<path style=" stroke:none;fill-rule:nonzero;fill:rgb(0%,0%,0%);fill-opacity:1;" d="M 789.164062 153.871094 C 759.789062 178.691406 689.945312 265.558594 696.472656 267.519531 C 710.835938 272.746094 792.425781 249.230469 840.082031 227.023438 C 867.492188 214.617188 900.128906 204.164062 913.183594 204.164062 L 936.683594 203.507812 L 911.882812 181.300781 C 862.273438 137.542969 819.191406 127.746094 789.164062 153.871094 Z M 789.164062 153.871094 "/>
</g>
</svg>
